<svg width="26" height="28" viewBox="0 0 26 28" fill="none" xmlns="http://www.w3.org/2000/svg">
<path d="M23.7759 10.7088C23.7078 10.4928 23.5825 10.303 23.4154 10.1629C23.2483 10.0227 23.0467 9.93835 22.8356 9.92015L16.6595 9.39165L13.9869 3.02049C13.9018 2.81528 13.7633 2.64099 13.5883 2.51865C13.4132 2.39631 13.209 2.33115 13.0003 2.33102C12.7916 2.3309 12.5874 2.39582 12.4122 2.51796C12.237 2.64009 12.0984 2.81422 12.0131 3.01932L9.34049 9.39165L3.1644 9.92015C2.9569 9.93786 2.75852 10.0196 2.59301 10.1555C2.42749 10.2914 2.30185 10.4759 2.23111 10.6867C2.16036 10.8975 2.14752 11.1258 2.19411 11.3443C2.2407 11.5628 2.34476 11.7622 2.49382 11.9187L7.0579 16.7102L5.44374 24.2375C5.39472 24.4653 5.41043 24.7038 5.48883 24.9219C5.56722 25.14 5.70467 25.3277 5.88336 25.4607C6.06204 25.5936 6.2737 25.6656 6.49087 25.6674C6.70804 25.6692 6.92069 25.6006 7.10124 25.4707L13 21.2357L18.8987 25.4707C19.0833 25.6026 19.3009 25.6705 19.5223 25.6653C19.7438 25.6601 19.9584 25.5819 20.1374 25.4414C20.3164 25.3009 20.4511 25.1047 20.5235 24.8792C20.5958 24.6538 20.6024 24.4099 20.5422 24.1803L18.5607 16.7137L23.4747 11.9513C23.7965 11.6387 23.9146 11.151 23.7759 10.7088V10.7088Z" fill="#1D4ED8"/>
</svg>
